# Blender v2.79 (sub 0) OBJ File: ''
# www.blender.org
mtllib shortbox.mtl
o short_box
v 1.245989 1.491249 -0.894913
v 0.145989 1.489601 -2.964912
v -0.354011 1.490859 -1.384912
v -0.354011 1.490859 -1.384912
v 0.145989 -0.160399 -2.963598
v -0.354011 -0.159141 -1.383599
v 1.245989 1.491249 -0.894913
v -0.354011 -0.159141 -1.383599
v 1.245989 -0.158750 -0.893599
v 1.725989 1.489975 -2.494912
v 1.245989 -0.158750 -0.893599
v 1.725989 -0.160024 -2.493598
v 0.145989 1.489601 -2.964912
v 1.725989 -0.160024 -2.493598
v 0.145989 -0.160399 -2.963598
v 1.725989 1.489975 -2.494912
v 0.145989 1.489601 -2.964912
v -0.354011 1.490859 -1.384912
v 1.245989 1.491249 -0.894913
v 1.725989 1.489975 -2.494912
vn 0.0000 1.0000 -0.0008
vn -0.9534 -0.0002 -0.3017
vn -0.2928 0.0008 0.9562
vn 0.9578 0.0002 0.2873
vn 0.2851 -0.0008 -0.9585
usemtl Khaki
s 1
f 1//1 2//1 3//1
f 4//2 5//2 6//2
f 7//3 8//3 9//3
f 10//4 11//4 12//4
f 13//5 14//5 15//5
f 1//1 16//1 2//1
f 4//2 17//2 5//2
f 7//3 18//3 8//3
f 10//4 19//4 11//4
f 13//5 20//5 14//5
